<?xml version="1.0" encoding="utf-8"?>
<svg xmlns="http://www.w3.org/2000/svg" x="0px" y="0px" viewBox="0 0 595.3 595.3" style="enable-background:new 0 0 595.3 595.3;" xml:space="preserve">
<style type="text/css">
	path {fill: #40397E;}
    circle {fill: none;}
</style>
<g>
	<circle cx="302" cy="297.65" r="252" />
	<path d="M302.4,18.8C148.5,18.8,23.3,144,23.3,298s125.2,279.2,279.2,279.2S581.6,451.9,581.6,298 S456.4,18.8,302.4,18.8z M302.4,548.2C164.4,548.2,52.2,436,52.2,298S164.4,47.7,302.4,47.7S552.7,160,552.7,298 S440.4,548.2,302.4,548.2z"/>
	<path d="M424.8,285.1l-95.3-55l-95.3-55c-9.9-5.7-22.3,1.4-22.3,12.9V298v110.1c0,11.5,12.4,18.6,22.3,12.9l95.3-55 l95.3-55C434.7,305.1,434.7,290.8,424.8,285.1z"/>
</g>
</svg>
