<?xml version="1.0" encoding="UTF-8"?> <svg xmlns="http://www.w3.org/2000/svg" id="Layer_1" data-name="Layer 1" viewBox="0 0 120 135"><defs><style>.cls-1{fill:#9b1d29;}.cls-2{fill:#fff;}</style></defs><title>01_INSTANA_IconSet</title><path class="cls-1" d="M52,4.64,9.56,29.15A16,16,0,0,0,1.57,43V92a16,16,0,0,0,8,13.84L52,130.36a16,16,0,0,0,16,0l42.45-24.51a16,16,0,0,0,8-13.84V43a16,16,0,0,0-8-13.84L68,4.64A16,16,0,0,0,52,4.64Z"></path><polygon class="cls-2" points="83.32 63.13 71.72 63.13 74.59 51.53 86.18 51.53 83.32 63.13"></polygon><polyline class="cls-2" points="66.73 84.44 69.6 72.85 81.19 72.85 78.33 84.44"></polyline><path class="cls-2" d="M57.51,87c-1.71,10-9.38,9.55-9.38,9.55H33.82l1.37-5.86H37.3c2.4-.13,3.11-3.69,3.11-3.69l9.22-35.42H66.72Z"></path><polyline class="cls-2" points="70.23 38.5 67.85 46.88 50.76 46.88 53.13 38.5"></polyline></svg>
