<svg width="660" height="660" xmlns="http://www.w3.org/2000/svg" xmlns:xlink="http://www.w3.org/1999/xlink" xml:space="preserve" overflow="hidden"><defs><clipPath id="clip0"><rect x="1514" y="1522" width="660" height="660"/></clipPath><clipPath id="clip1"><rect x="1578" y="1586" width="532" height="532"/></clipPath><clipPath id="clip2"><rect x="1578" y="1586" width="532" height="532"/></clipPath><clipPath id="clip3"><rect x="1578" y="1586" width="532" height="532"/></clipPath></defs><g clip-path="url(#clip0)" transform="translate(-1514 -1522)"><path d="M1519 1852C1519 1672.51 1664.51 1527 1844 1527 2023.49 1527 2169 1672.51 2169 1852 2169 2031.49 2023.49 2177 1844 2177 1664.51 2177 1519 2031.49 1519 1852Z" stroke="#385723" stroke-width="10.3125" stroke-miterlimit="8" fill="#E2F0D9" fill-rule="evenodd"/><g clip-path="url(#clip1)"><g clip-path="url(#clip2)"><g clip-path="url(#clip3)"><path d="M1722.08 1874.17C1722.08 1807.11 1776.95 1752.25 1844 1752.25 1911.05 1752.25 1965.92 1807.11 1965.92 1874.17 1965.92 1941.22 1911.05 1996.08 1844 1996.08 1776.95 1996.08 1722.08 1941.22 1722.08 1874.17ZM1855.08 1719.55 1855.08 1696.83 1877.25 1696.83C1883.35 1696.83 1888.33 1691.85 1888.33 1685.75 1888.33 1679.65 1883.35 1674.67 1877.25 1674.67L1810.75 1674.67C1804.65 1674.67 1799.67 1679.65 1799.67 1685.75 1799.67 1691.85 1804.65 1696.83 1810.75 1696.83L1832.92 1696.83 1832.92 1719.55C1752.56 1725.1 1688.83 1792.15 1688.83 1874.17 1688.83 1916.28 1705.46 1954.52 1733.17 1982.78L1712.11 2024.35C1709.34 2029.89 1711.55 2036.54 1717.1 2039.31 1718.76 2039.86 1720.42 2040.42 1722.08 2040.42 1725.96 2040.42 1729.84 2038.2 1732.06 2034.32L1750.35 1997.75C1776.39 2017.7 1808.53 2029.33 1844 2029.33 1879.47 2029.33 1911.61 2017.7 1937.65 1997.75L1955.94 2034.32C1958.16 2038.2 1962.04 2040.42 1965.92 2040.42 1967.58 2040.42 1969.24 2039.86 1970.9 2039.31 1976.45 2036.54 1978.66 2029.89 1975.89 2024.35L1954.83 1982.78C1981.99 1955.07 1999.17 1916.28 1999.17 1874.17 1999.17 1792.15 1935.44 1725.1 1855.08 1719.55Z" fill="#1F4E79"/><path d="M1832.92 1863.08 1755.33 1863.08 1755.33 1885.25 1844 1885.25C1850.1 1885.25 1855.08 1880.26 1855.08 1874.17L1855.08 1785.5 1832.92 1785.5 1832.92 1863.08Z" fill="#1F4E79"/><path d="M2022.44 1720.11 1976.45 1674.11C1967.58 1665.25 1953.72 1665.25 1944.86 1674.11L1916.04 1702.38 1993.62 1779.96 2022.44 1751.14C2030.75 1742.83 2030.75 1728.42 2022.44 1720.11Z" fill="#1F4E79"/><path d="M1771.96 1702.38 1743.14 1673.56C1734.28 1664.69 1720.42 1664.69 1711.55 1673.56L1665.56 1719.55C1656.69 1728.42 1656.69 1742.28 1665.56 1751.14L1694.38 1779.96 1771.96 1702.38Z" fill="#1F4E79"/></g></g></g></g></svg>
